<svg width="25" height="24" viewBox="0 0 25 24" fill="none" xmlns="http://www.w3.org/2000/svg">
<path fill-rule="evenodd" clip-rule="evenodd" d="M19.3376 11.883C19.3696 12.578 19.3006 13.26 19.1416 13.915L21.2786 12.57L19.2526 11.082C19.2956 11.345 19.3256 11.612 19.3376 11.883ZM4.71556 12.545C4.68456 11.851 4.75356 11.168 4.91256 10.514L2.77656 11.858L4.80056 13.347C4.75856 13.084 4.72856 12.817 4.71556 12.545ZM15.8786 15.811C16.8866 14.773 17.4056 13.411 17.3396 11.974C17.2786 10.631 16.6846 9.412 15.7626 8.516L15.1326 8.053C14.2566 7.41 13.2586 7.048 12.2426 7.006C12.1416 7.002 12.0406 7 11.9406 7.002L11.8786 7.004C11.0106 7.029 10.1646 7.26 9.41056 7.683L8.78756 8.075C8.57256 8.239 8.36756 8.419 8.17556 8.617C7.16656 9.655 6.64856 11.018 6.71356 12.455C6.77556 13.797 7.37056 15.017 8.29156 15.913L8.92056 16.375C9.79656 17.019 10.7946 17.38 11.8106 17.423C11.9126 17.427 12.0126 17.428 12.1146 17.426C12.1246 17.426 12.1346 17.4258 12.1446 17.4255C12.1546 17.4253 12.1646 17.425 12.1746 17.425C13.0426 17.399 13.8896 17.168 14.6436 16.745L15.2666 16.353C15.4826 16.19 15.6866 16.009 15.8786 15.811ZM17.0076 6.949L23.6456 11.829C23.9126 12.024 24.0646 12.34 24.0526 12.67C24.0406 13.001 23.8666 13.304 23.5856 13.48L16.3856 18.012C15.2596 18.84 13.9246 19.324 12.5036 19.412C12.5016 19.412 12.4996 19.4123 12.4976 19.4125C12.4956 19.4128 12.4936 19.413 12.4916 19.413L12.4832 19.4134C12.4291 19.4163 12.3758 19.4191 12.3226 19.421C12.2386 19.424 12.1546 19.427 12.0706 19.427C12.0644 19.427 12.0583 19.4273 12.0523 19.4275C12.0466 19.4278 12.0409 19.428 12.0356 19.428H12.0256H12.0166C12.0092 19.428 12.002 19.4278 11.9948 19.4275C11.9873 19.4273 11.9797 19.427 11.9716 19.427C11.952 19.4267 11.9325 19.4264 11.913 19.4262C11.8739 19.4258 11.835 19.4253 11.7956 19.424H11.7876C11.7746 19.423 11.7616 19.422 11.7486 19.422C11.7363 19.4215 11.7241 19.4212 11.7115 19.421C11.6995 19.4207 11.6873 19.4205 11.6746 19.42C11.6459 19.4187 11.6173 19.4166 11.5884 19.4144C11.5729 19.4132 11.5573 19.412 11.5416 19.411L11.5016 19.408C9.79356 19.29 8.23856 18.577 7.04656 17.479L0.408559 12.6C0.141559 12.404 -0.0104414 12.089 0.000558606 11.758C0.0125586 11.427 0.187559 11.124 0.467559 10.948L7.66856 6.416C8.84956 5.548 10.2596 5.058 11.7576 5.007C11.8236 5.004 11.8876 5.003 11.9546 5.002C11.9649 5.002 11.9753 5.00151 11.9858 5.00102C11.9966 5.00051 12.0074 5 12.0186 5C12.0271 5 12.0353 5.00025 12.0436 5.0005C12.0518 5.00075 12.0601 5.001 12.0686 5.001C12.1166 5.001 12.1646 5.002 12.2126 5.003L12.2126 5.003C12.2276 5.004 12.2436 5.004 12.2576 5.004H12.2666L12.2876 5.006C12.3029 5.0065 12.3181 5.00675 12.3331 5.00699C12.3483 5.00725 12.3634 5.0075 12.3786 5.008C12.4065 5.00921 12.434 5.01153 12.4614 5.01384C12.4792 5.01533 12.4969 5.01682 12.5146 5.018C12.5206 5.0185 12.5263 5.01875 12.5321 5.019C12.5378 5.01925 12.5436 5.0195 12.5496 5.02C14.2586 5.138 15.8166 5.852 17.0076 6.949ZM11.0127 12.2143C11.0127 12.7653 11.4617 13.2143 12.0127 13.2143C12.5647 13.2143 13.0127 12.7653 13.0127 12.2143C13.0127 11.6623 12.5647 11.2143 12.0127 11.2143C11.4617 11.2143 11.0127 11.6623 11.0127 12.2143ZM9.01266 12.2143C9.01266 10.5603 10.3587 9.2143 12.0127 9.2143C13.6667 9.2143 15.0127 10.5603 15.0127 12.2143C15.0127 13.8683 13.6667 15.2143 12.0127 15.2143C10.3587 15.2143 9.01266 13.8683 9.01266 12.2143Z" fill="#333333"/>
</svg>
