<svg width="25" height="24" viewBox="0 0 25 24" fill="none" xmlns="http://www.w3.org/2000/svg">
<path fill-rule="evenodd" clip-rule="evenodd" d="M19.1402 13.8257C19.2992 13.1707 19.3692 12.4887 19.3372 11.7937C19.3252 11.5227 19.2942 11.2557 19.2522 10.9927L21.2772 12.4807L19.1402 13.8257ZM15.8772 15.7217C15.6862 15.9197 15.4812 16.1007 15.2662 16.2637L14.6432 16.6557C13.8882 17.0787 13.0422 17.3097 12.1742 17.3357C12.1642 17.3357 12.1542 17.3359 12.1442 17.3362L12.144 17.3362C12.1341 17.3364 12.1241 17.3367 12.1142 17.3367C12.0122 17.3387 11.9112 17.3377 11.8092 17.3337C10.8152 17.2917 9.83816 16.9437 8.97616 16.3257L10.5552 14.7457L11.2114 14.0899L10.5553 14.746C10.9873 14.987 11.4843 15.125 12.0123 15.125C13.6663 15.125 15.0123 13.779 15.0123 12.125C15.0123 11.596 14.8743 11.1 14.6333 10.668L12.9943 12.307C12.9193 12.7118 12.5996 13.0326 12.195 13.1069L12.9942 12.3067L14.6332 10.6677L16.2852 9.01569C16.9042 9.82769 17.2902 10.8167 17.3392 11.8847C17.4052 13.3217 16.8862 14.6837 15.8772 15.7217ZM23.6452 11.7397L17.8332 7.46769L19.5942 5.70669C19.9852 5.31669 19.9852 4.68269 19.5942 4.29269C19.2742 3.97269 18.7922 3.91569 18.4132 4.11869C18.3292 4.16469 18.2502 4.22169 18.1802 4.29269L4.18016 18.2927C4.13116 18.3417 4.08916 18.3927 4.05316 18.4487C3.79516 18.8367 3.83716 19.3647 4.18016 19.7067C4.37516 19.9027 4.63116 19.9997 4.88716 19.9997C5.14316 19.9997 5.39916 19.9027 5.59416 19.7067L7.51416 17.7867C8.63216 18.6577 10.0082 19.2157 11.5002 19.3187L11.5412 19.3217L11.5876 19.3251C11.6164 19.3272 11.6448 19.3294 11.6742 19.3307C11.6865 19.3312 11.6989 19.3314 11.7112 19.3317H11.7112C11.7237 19.3319 11.7361 19.3322 11.7482 19.3327C11.7612 19.3327 11.7742 19.3337 11.7862 19.3347H11.7952C11.8339 19.336 11.873 19.3365 11.9124 19.3369H11.9124L11.9712 19.3377C11.9787 19.3377 11.9859 19.3379 11.9932 19.3382L11.9932 19.3382C12.0005 19.3384 12.0077 19.3387 12.0152 19.3387H12.0252H12.0352C12.0405 19.3387 12.0461 19.3385 12.0519 19.3382L12.0519 19.3382C12.0579 19.338 12.064 19.3377 12.0702 19.3377C12.1542 19.3377 12.2382 19.3347 12.3222 19.3317C12.3754 19.3298 12.4286 19.327 12.4826 19.3241L12.4912 19.3237C12.4925 19.3237 12.4942 19.3235 12.4959 19.3232C12.4979 19.323 12.5 19.3227 12.5022 19.3227C13.9232 19.2357 15.2582 18.7507 16.3852 17.9227L23.5852 13.3907C23.8662 13.2147 24.0402 12.9117 24.0522 12.5807C24.0642 12.2507 23.9112 11.9347 23.6452 11.7397ZM4.91266 10.4243C4.75266 11.0793 4.68366 11.7613 4.71566 12.4563C4.72766 12.7273 4.75766 12.9943 4.80066 13.2573L2.77466 11.7693L4.91266 10.4243ZM6.77666 12.9553C6.74466 12.7613 6.72266 12.5653 6.71366 12.3653C6.64766 10.9283 7.16666 9.56529 8.17466 8.52729C8.36666 8.32929 8.57166 8.14929 8.78766 7.98529L9.40966 7.59329C10.1637 7.17129 11.0087 6.94029 11.8757 6.91429C11.886 6.91429 11.8969 6.91405 11.9079 6.9138C11.9191 6.91355 11.9305 6.91329 11.9417 6.91329C12.0417 6.91129 12.1417 6.91229 12.2417 6.91629C12.4177 6.92429 12.5927 6.94029 12.7667 6.96629L14.4217 5.31129C13.8277 5.10529 13.1987 4.97529 12.5497 4.93029C12.5438 4.9298 12.5379 4.92955 12.5321 4.92931C12.5261 4.92905 12.5203 4.9288 12.5147 4.92829L12.4707 4.92515C12.4403 4.9229 12.4097 4.92064 12.3787 4.91929C12.358 4.91796 12.3373 4.91752 12.3167 4.91707L12.2857 4.91629L12.2657 4.91529H12.2577C12.2437 4.91429 12.2287 4.91429 12.2157 4.91429C12.1657 4.91329 12.1147 4.91229 12.0647 4.91229C12.0497 4.91129 12.0337 4.91129 12.0177 4.91129C12.0077 4.91129 11.9977 4.91154 11.9877 4.91179C11.9777 4.91204 11.9677 4.91229 11.9577 4.91229C11.8897 4.91329 11.8197 4.91529 11.7507 4.91729C10.2557 4.97029 8.84766 5.46029 7.66766 6.32729L0.467657 10.8583C0.186657 11.0343 0.0126571 11.3383 0.000657068 11.6693C-0.0113429 11.9993 0.141657 12.3143 0.407657 12.5103L4.33566 15.3973L6.77666 12.9553Z" fill="#333333"/>
</svg>
